<svg xmlns="http://www.w3.org/2000/svg" viewBox="0 0 512 512" width="192" height="192">
  <defs>
    <linearGradient id="bgGrad192" x1="0%" y1="0%" x2="100%" y2="100%">
      <stop offset="0%" stop-color="#0f172a" />
      <stop offset="100%" stop-color="#020617" />
    </linearGradient>
    <linearGradient id="primaryGrad192" x1="0%" y1="0%" x2="100%" y2="100%">
      <stop offset="0%" stop-color="#3b82f6" />
      <stop offset="50%" stop-color="#6366f1" />
      <stop offset="100%" stop-color="#a855f7" />
    </linearGradient>
    <linearGradient id="glowGrad192" x1="0%" y1="0%" x2="100%" y2="100%">
      <stop offset="0%" stop-color="#38bdf8" />
      <stop offset="100%" stop-color="#818cf8" />
    </linearGradient>
  </defs>

  <rect width="512" height="512" rx="112" fill="url(#bgGrad192)" />
  <rect width="504" height="504" x="4" y="4" rx="108" fill="none" stroke="url(#primaryGrad192)" stroke-width="6" opacity="0.4" />

  <circle cx="256" cy="256" r="180" fill="none" stroke="url(#primaryGrad192)" stroke-width="8" stroke-dasharray="16 12" opacity="0.6" />
  <circle cx="256" cy="256" r="88" fill="url(#primaryGrad192)" />
  <circle cx="256" cy="256" r="80" fill="#0f172a" />

  <path d="M220 180h48c35 0 56 18 56 46 0 20-11 34-29 41l35 65h-32l-30-58h-20v58h-28V180zm28 24v44h18c18 0 28-8 28-22s-10-22-28-22h-18z" fill="url(#glowGrad192)" />
</svg>
